# xmcd
# 
# Track frame offsets:
#     150
#     20075
#     36580
#     55625
#     71937
#     90625
#     109860
#     124985
#     142077
#     160732
# 
# Disc length: 2361
# 
# Revision: 1
# Processed by: cddbd v1.5.2PL0 Copyright (c) Steve Scherf et al.
# Submitted via: fre:ac v1.0.17
# 
DISCID=9409370a
DTITLE=うしろゆびさされ組 - AN bALANCING TOY
DYEAR=1986
DGENRE=J-POP
TTITLE0=技ありっ!
TTITLE1=コスモス通りの異星人
TTITLE2=のっとおんりぃ★ばっとおるそう
TTITLE3=Dan Dan 赤ずきん
TTITLE4=行け! ヘラクレス!!
TTITLE5=渚の『・・・・・』
TTITLE6=ハートボイルドはお好き?
TTITLE7=涙ほろりんブギ
TTITLE8=わたしは 知恵の輪(puzzling)
TTITLE9=さよなら 失恋ピエロくん
EXTD=YEAR: 1986
EXTT0=
EXTT1=
EXTT2=
EXTT3=
EXTT4=
EXTT5=
EXTT6=
EXTT7=
EXTT8=
EXTT9=
PLAYORDER=
